/* XPM */
static char * 1_xpm[] = {
"16 16 2 1",
" 	c None",
".	c #FFFFFF",
"                ",
"     ......     ",
"   ..      ..   ",
"  .          .  ",
" .            . ",
"  .          .  ",
"  .          .  ",
"   .        .   ",
"   .        .   ",
"    .      .    ",
"     . .. .     ",
"     ......     ",
"      ....      ",
"       ..       ",
"       ..       ",
"                "};
