/* XPM */
static char * 6_xpm[] = {
"16 16 2 1",
" 	c None",
".	c #FFFFFF",
"                ",
"     ......     ",
"   ..      ..   ",
"  .          .  ",
" .    ....    . ",
"  . ........ .  ",
"  ............  ",
"   ..........   ",
"   ..........   ",
"    ........    ",
"     ......     ",
"     ......     ",
"      ....      ",
"       ..       ",
"       ..       ",
"                "};
