/* XPM */
static char * medium_xpm[] = {
"17 16 2 1",
" 	c None",
".	c #FFFFFF",
"                 ",
"                 ",
"                 ",
"      .          ",
"     ..   .      ",
"    ... .  .     ",
"  .....  .  .    ",
"  .....  .  .    ",
"  .....  .  .    ",
"  .....  .  .    ",
"    ... .  .     ",
"     ..   .      ",
"      .          ",
"                 ",
"                 ",
"                 "};
