/* XPM */
static char * 1_xpm[] = {
"5 16 3 1",
" 	c None",
".	c #FFFFFF",
"+	c #E7DCDC",
"     ",
"     ",
"     ",
"..   ",
"  .  ",
"  .  ",
"  .  ",
"  .  ",
"  .  ",
"  .  ",
"  .  ",
"++.  ",
"..   ",
"     ",
"     ",
"     "};
