/* XPM */
static char * 2_xpm[] = {
"5 16 3 1",
" 	c None",
".	c #FFFFFF",
"+	c #E9C2C2",
"     ",
"     ",
"     ",
"..   ",
"  .  ",
"  .  ",
"  .  ",
"  .  ",
"  .  ",
"  .  ",
"++.  ",
"++.  ",
"..   ",
"     ",
"     ",
"     "};
