/* XPM */
static char * 4_xpm[] = {
"5 16 3 1",
" 	c None",
".	c #FFFFFF",
"+	c #EF9090",
"     ",
"     ",
"     ",
"..   ",
"  .  ",
"  .  ",
"  .  ",
"  .  ",
"++.  ",
"++.  ",
"++.  ",
"++.  ",
"..   ",
"     ",
"     ",
"     "};
