/* XPM */
static char * 8_xpm[] = {
"5 16 3 1",
" 	c None",
".	c #FFFFFF",
"+	c #FA2A2B",
"     ",
"     ",
"     ",
"..   ",
"++.  ",
"++.  ",
"++.  ",
"++.  ",
"++.  ",
"++.  ",
"++.  ",
"++.  ",
"..   ",
"     ",
"     ",
"     "};
