/* XPM */
static char * 3_xpm[] = {
"16 16 3 1",
" 	c None",
".	c #FFFFFF",
"+	c #FFC400",
"                ",
"       ..       ",
"    ........    ",
"    .      .    ",
"    .      .    ",
"    .      .    ",
"    .      .    ",
"    .      .    ",
"    .      .    ",
"    .      .    ",
"    .      .    ",
"    .++++++.    ",
"    .++++++.    ",
"    .++++++.    ",
"     ......     ",
"                "};
