/* XPM */
static char * 3_xpm[] = {
"16 16 4 1",
" 	c None",
".	c #FFFFFF",
"+	c #B30000",
"@	c #FFC400",
"                ",
"       ..       ",
"    ........    ",
"    .      .    ",
"    .      .    ",
"    .   +  .    ",
"    .   +  .    ",
"    .  ++  .    ",
"    . ++++ .    ",
"    .  ++  .    ",
"    .  +   .    ",
"    .@@+@@@.    ",
"    .@@@@@@.    ",
"    .@@@@@@.    ",
"     ......     ",
"                "};
