/* XPM */
static char * 8_xpm[] = {
"16 16 4 1",
" 	c None",
".	c #FFFFFF",
"+	c #E6E6E6",
"@	c #B30000",
"                ",
"       ..       ",
"    ........    ",
"    .++++++.    ",
"    .++++++.    ",
"    .+++@++.    ",
"    .+++@++.    ",
"    .++@@++.    ",
"    .+@@@@+.    ",
"    .++@@++.    ",
"    .++@+++.    ",
"    .++@+++.    ",
"    .++++++.    ",
"    .++++++.    ",
"     ......     ",
"                "};
