/* XPM */
static char * 0_xpm[] = {
"2 16 2 1",
" 	c None",
".	c #FFFFFF",
"  ",
"  ",
"  ",
"..",
"  ",
"  ",
"  ",
"  ",
"  ",
"  ",
"  ",
"  ",
"..",
"  ",
"  ",
"  "};
