/* XPM */
static char * 1_xpm[] = {
"2 16 3 1",
" 	c None",
".	c #FFFFFF",
"+	c #E7DCDC",
"  ",
"  ",
"  ",
"..",
"  ",
"  ",
"  ",
"  ",
"  ",
"  ",
"  ",
"++",
"..",
"  ",
"  ",
"  "};
