/* XPM */
static char * 3_xpm[] = {
"2 16 3 1",
" 	c None",
".	c #FFFFFF",
"+	c #ECA9AA",
"  ",
"  ",
"  ",
"..",
"  ",
"  ",
"  ",
"  ",
"  ",
"++",
"++",
"++",
"..",
"  ",
"  ",
"  "};
