/* XPM */
static char * 6_xpm[] = {
"2 16 3 1",
" 	c None",
".	c #FFFFFF",
"+	c #F45D5D",
"  ",
"  ",
"  ",
"..",
"  ",
"  ",
"++",
"++",
"++",
"++",
"++",
"++",
"..",
"  ",
"  ",
"  "};
