/* XPM */
static char * 0_xpm[] = {
"4 16 2 1",
" 	c None",
".	c #FFFFFF",
"    ",
"    ",
"    ",
"  ..",
" .  ",
" .  ",
" .  ",
" .  ",
" .  ",
" .  ",
" .  ",
" .  ",
"  ..",
"    ",
"    ",
"    "};
