/* XPM */
static char * 3_xpm[] = {
"3 16 3 1",
" 	c None",
".	c #FFFFFF",
"+	c #ECA9AA",
"   ",
"   ",
"   ",
" ..",
".  ",
".  ",
".  ",
".  ",
".  ",
".++",
".++",
".++",
" ..",
"   ",
"   ",
"   "};
