/* XPM */
static char * 4_xpm[] = {
"3 16 3 1",
" 	c None",
".	c #FFFFFF",
"+	c #EF9090",
"   ",
"   ",
"   ",
" ..",
".  ",
".  ",
".  ",
".  ",
".++",
".++",
".++",
".++",
" ..",
"   ",
"   ",
"   "};
