/* XPM */
static char * 5_xpm[] = {
"3 16 3 1",
" 	c None",
".	c #FFFFFF",
"+	c #F27777",
"   ",
"   ",
"   ",
" ..",
".  ",
".  ",
".  ",
".++",
".++",
".++",
".++",
".++",
" ..",
"   ",
"   ",
"   "};
