/* XPM */
static char * 6_xpm[] = {
"3 16 3 1",
" 	c None",
".	c #FFFFFF",
"+	c #F45D5D",
"   ",
"   ",
"   ",
" ..",
".  ",
".  ",
".++",
".++",
".++",
".++",
".++",
".++",
" ..",
"   ",
"   ",
"   "};
