/* XPM */
static char * 7_xpm[] = {
"3 16 3 1",
" 	c None",
".	c #FFFFFF",
"+	c #F84444",
"   ",
"   ",
"   ",
" ..",
".  ",
".++",
".++",
".++",
".++",
".++",
".++",
".++",
" ..",
"   ",
"   ",
"   "};
