#define ac_width 20
#define ac_height 14
static char ac_bits[] = {
  0x00, 0x00, 0x00, 0x00, 0x00, 0x00, 0x00, 0xFF, 0x00, 0x00, 0xF8, 0x00, 
  0x00, 0xF0, 0x00, 0x00, 0xF6, 0x00, 0x00, 0x6F, 0x00, 0x00, 0x0F, 0x00, 
  0x00, 0x1F, 0x00, 0x00, 0xFF, 0x00, 0x00, 0x00, 0x00, 0x00, 0x00, 0x00, 
  0x00, 0x00, 0x00, 0x00, 0x00, 0x00, };
