#define arch_width 20
#define arch_height 14
static char arch_bits[] = {
  0x00, 0x00, 0x00, 0x00, 0x00, 0x00, 0x00, 0x08, 0x00, 0x00, 0x08, 0x00, 
  0x00, 0x1C, 0x00, 0x00, 0x1C, 0x00, 0x00, 0x36, 0x00, 0x00, 0x22, 0x00, 
  0x00, 0x77, 0x00, 0x00, 0x41, 0x00, 0x00, 0x00, 0x00, 0x00, 0x00, 0x00, 
  0x00, 0x00, 0x00, 0x00, 0x00, 0x00, };
