#define bat_full_02_width 20
#define bat_full_02_height 14
static char bat_full_02_bits[] = {
  0x00, 0x00, 0x00, 0x00, 0x00, 0x00, 0x00, 0x00, 0x00, 0x00, 0x7F, 0x00, 
  0x00, 0x41, 0x00, 0x00, 0xDD, 0x00, 0x00, 0xDD, 0x00, 0x00, 0x41, 0x00, 
  0x00, 0x7F, 0x00, 0x00, 0x00, 0x00, 0x00, 0x00, 0x00, 0x00, 0x00, 0x00, 
  0x00, 0x00, 0x00, 0x00, 0x00, 0x00, };
