#define bat_low_02_width 20
#define bat_low_02_height 14
static char bat_low_02_bits[] = {
  0x00, 0x00, 0x00, 0x00, 0x00, 0x00, 0x00, 0x00, 0x00, 0x00, 0x7F, 0x00, 
  0x00, 0x41, 0x00, 0x00, 0xC5, 0x00, 0x00, 0xC5, 0x00, 0x00, 0x41, 0x00, 
  0x00, 0x7F, 0x00, 0x00, 0x00, 0x00, 0x00, 0x00, 0x00, 0x00, 0x00, 0x00, 
  0x00, 0x00, 0x00, 0x00, 0x00, 0x00, };
