#define bat_full_01_width 20
#define bat_full_01_height 14
static char bat_full_01_bits[] = {
  0x00, 0x00, 0x00, 0x00, 0x00, 0x00, 0x00, 0x18, 0x00, 0x00, 0x7E, 0x00, 
  0x00, 0x42, 0x00, 0x00, 0x5A, 0x00, 0x00, 0x5A, 0x00, 0x00, 0x5A, 0x00, 
  0x00, 0x42, 0x00, 0x00, 0x7E, 0x00, 0x00, 0x00, 0x00, 0x00, 0x00, 0x00, 
  0x00, 0x00, 0x00, 0x00, 0x00, 0x00, };
