#define bug_02_width 20
#define bug_02_height 14
static char bug_02_bits[] = {
  0x00, 0x00, 0x00, 0x00, 0x00, 0x00, 0x00, 0xC3, 0x00, 0x00, 0x24, 0x00, 
  0x00, 0x24, 0x00, 0x00, 0xDB, 0x00, 0x00, 0x3C, 0x00, 0x00, 0x7E, 0x00, 
  0x00, 0x99, 0x00, 0x00, 0x42, 0x00, 0x00, 0x00, 0x00, 0x00, 0x00, 0x00, 
  0x00, 0x00, 0x00, 0x00, 0x00, 0x00, };
