#define bug_01_width 20
#define bug_01_height 14
static char bug_01_bits[] = {
  0x00, 0x00, 0x00, 0x00, 0x00, 0x00, 0x00, 0xC3, 0x00, 0x00, 0x24, 0x00, 
  0x00, 0x18, 0x00, 0x00, 0xDB, 0x00, 0x00, 0x3C, 0x00, 0x00, 0x7E, 0x00, 
  0x00, 0xBD, 0x00, 0x00, 0x99, 0x00, 0x00, 0x00, 0x00, 0x00, 0x00, 0x00, 
  0x00, 0x00, 0x00, 0x00, 0x00, 0x00, };
