#define cat_width 20
#define cat_height 14
static char cat_bits[] = {
  0x00, 0x00, 0x00, 0x00, 0x00, 0x00, 0x00, 0x81, 0x00, 0x00, 0xC3, 0x00, 
  0x00, 0xBD, 0x00, 0x00, 0xFF, 0x00, 0x00, 0x99, 0x00, 0x00, 0xFF, 0x00, 
  0x00, 0x7E, 0x00, 0x00, 0xBD, 0x00, 0x00, 0x00, 0x00, 0x00, 0x00, 0x00, 
  0x00, 0x00, 0x00, 0x00, 0x00, 0x00, };
