#define clock_width 20
#define clock_height 14
static char clock_bits[] = {
  0x00, 0x00, 0x00, 0x00, 0x00, 0x00, 0x00, 0x3C, 0x00, 0x00, 0x5E, 0x00, 
  0x00, 0xEF, 0x00, 0x00, 0xF7, 0x00, 0x00, 0x87, 0x00, 0x00, 0xFF, 0x00, 
  0x00, 0x7E, 0x00, 0x00, 0x3C, 0x00, 0x00, 0x00, 0x00, 0x00, 0x00, 0x00, 
  0x00, 0x00, 0x00, 0x00, 0x00, 0x00, };
