#define cpu_width 20
#define cpu_height 14
static unsigned char cpu_bits[] = {
   0x00, 0x00, 0x00, 0x00, 0x00, 0x00, 0x00, 0x63, 0x00, 0x80, 0xf7, 0x00,
   0x80, 0xff, 0x00, 0x80, 0xff, 0x00, 0x00, 0x7f, 0x00, 0x00, 0x3e, 0x00,
   0x00, 0x1c, 0x00, 0x00, 0x08, 0x00, 0x00, 0x00, 0x00, 0x00, 0x00, 0x00,
   0x00, 0x00, 0x00, 0x00, 0x00, 0x00 };
