#define dish_width 20
#define dish_height 14
static char dish_bits[] = {
  0x00, 0x00, 0x00, 0x00, 0x00, 0x00, 0x00, 0x81, 0x00, 0x00, 0x7B, 0x00, 
  0x00, 0x46, 0x00, 0x00, 0x4E, 0x00, 0x00, 0x5C, 0x00, 0x00, 0x3E, 0x00, 
  0x00, 0x77, 0x00, 0x00, 0xC3, 0x00, 0x00, 0x00, 0x00, 0x00, 0x00, 0x00, 
  0x00, 0x00, 0x00, 0x00, 0x00, 0x00, };
