#define diskette_width 20
#define diskette_height 14
static char diskette_bits[] = {
  0x00, 0x00, 0x00, 0x00, 0x00, 0x00, 0x00, 0xFF, 0x00, 0x00, 0x81, 0x00, 
  0x00, 0x81, 0x00, 0x00, 0x81, 0x00, 0x00, 0xBD, 0x00, 0x00, 0xB5, 0x00, 
  0x00, 0xB5, 0x00, 0x00, 0xFE, 0x00, 0x00, 0x00, 0x00, 0x00, 0x00, 0x00, 
  0x00, 0x00, 0x00, 0x00, 0x00, 0x00, };
