#define empty_width 20
#define empty_height 14
static char empty_bits[] = {
  0x00, 0x00, 0x00, 0x00, 0x00, 0x00, 0x00, 0x3C, 0x00, 0x00, 0x42, 0x00, 
  0x00, 0x81, 0x00, 0x00, 0x81, 0x00, 0x00, 0x81, 0x00, 0x00, 0x81, 0x00, 
  0x00, 0x42, 0x00, 0x00, 0x3C, 0x00, 0x00, 0x00, 0x00, 0x00, 0x00, 0x00, 
  0x00, 0x00, 0x00, 0x00, 0x00, 0x00, };
