#define eye_l_width 20
#define eye_l_height 14
static char eye_l_bits[] = {
  0x00, 0x00, 0x00, 0x00, 0x00, 0x00, 0x00, 0x00, 0x00, 0x00, 0x00, 0x00, 
  0x00, 0x1B, 0x00, 0x00, 0x02, 0x00, 0x00, 0x02, 0x00, 0x00, 0x84, 0x00, 
  0x00, 0xF9, 0x00, 0x00, 0x02, 0x00, 0x00, 0x00, 0x00, 0x00, 0x00, 0x00, 
  0x00, 0x00, 0x00, 0x00, 0x00, 0x00, };
