#define eye_r_width 20
#define eye_r_height 14
static char eye_r_bits[] = {
  0x00, 0x00, 0x00, 0x00, 0x00, 0x00, 0x00, 0x00, 0x00, 0x00, 0x00, 0x00, 
  0x00, 0xD8, 0x00, 0x00, 0x40, 0x00, 0x00, 0x40, 0x00, 0x00, 0x21, 0x00, 
  0x00, 0x9F, 0x00, 0x00, 0x40, 0x00, 0x00, 0x00, 0x00, 0x00, 0x00, 0x00, 
  0x00, 0x00, 0x00, 0x00, 0x00, 0x00, };
