#define fox_width 20
#define fox_height 14
static char fox_bits[] = {
  0x00, 0x00, 0x00, 0x00, 0x00, 0x00, 0x00, 0x81, 0x00, 0x00, 0xC3, 0x00, 
  0x00, 0xBD, 0x00, 0x00, 0xFF, 0x00, 0x00, 0x99, 0x00, 0x00, 0xDB, 0x00, 
  0x00, 0x7E, 0x00, 0x00, 0x18, 0x00, 0x00, 0x00, 0x00, 0x00, 0x00, 0x00, 
  0x00, 0x00, 0x00, 0x00, 0x00, 0x00, };
