#define fs_01_width 20
#define fs_01_height 14
static char fs_01_bits[] = {
  0x00, 0x00, 0x00, 0x00, 0x00, 0x00, 0x00, 0x46, 0x00, 0x00, 0x99, 0x00, 
  0x00, 0xBC, 0x00, 0x00, 0x66, 0x00, 0x00, 0x66, 0x00, 0x00, 0x3D, 0x00, 
  0x00, 0x99, 0x00, 0x00, 0x62, 0x00, 0x00, 0x00, 0x00, 0x00, 0x00, 0x00, 
  0x00, 0x00, 0x00, 0x00, 0x00, 0x00, };
