#define fs_02_width 20
#define fs_02_height 14
static char fs_02_bits[] = {
  0x00, 0x00, 0x00, 0x00, 0x00, 0x00, 0x00, 0xF1, 0x00, 0x00, 0x5B, 0x00, 
  0x00, 0x3D, 0x00, 0x00, 0x67, 0x00, 0x00, 0xE6, 0x00, 0x00, 0xBC, 0x00, 
  0x00, 0xDA, 0x00, 0x00, 0x8F, 0x00, 0x00, 0x00, 0x00, 0x00, 0x00, 0x00, 
  0x00, 0x00, 0x00, 0x00, 0x00, 0x00, };
