#define half_width 20
#define half_height 14
static char half_bits[] = {
  0x00, 0x00, 0x00, 0x00, 0x00, 0x00, 0x00, 0x3C, 0x00, 0x00, 0x4E, 0x00, 
  0x00, 0x8F, 0x00, 0x00, 0x8F, 0x00, 0x00, 0x8F, 0x00, 0x00, 0x8F, 0x00, 
  0x00, 0x4E, 0x00, 0x00, 0x3C, 0x00, 0x00, 0x00, 0x00, 0x00, 0x00, 0x00, 
  0x00, 0x00, 0x00, 0x00, 0x00, 0x00, };
