#define mem_width 20
#define mem_height 14
static unsigned char mem_bits[] = {
   0x00, 0x00, 0x00, 0x00, 0x00, 0x00, 0x00, 0xaa, 0x00, 0x00, 0x00, 0x00,
   0x00, 0xfe, 0x00, 0x00, 0xbe, 0x00, 0x00, 0xfe, 0x00, 0x00, 0xfe, 0x00,
   0x00, 0x00, 0x00, 0x00, 0xaa, 0x00, 0x00, 0x00, 0x00, 0x00, 0x00, 0x00,
   0x00, 0x00, 0x00, 0x00, 0x00, 0x00 };
