#define mouse_01_width 20
#define mouse_01_height 14
static char mouse_01_bits[] = {
  0x00, 0x00, 0x00, 0x00, 0x00, 0x00, 0x00, 0xEE, 0x00, 0x00, 0xEE, 0x00, 
  0x00, 0xEE, 0x00, 0x00, 0x82, 0x00, 0x00, 0xFE, 0x00, 0x00, 0xFE, 0x00, 
  0x00, 0xFE, 0x00, 0x00, 0x7C, 0x00, 0x00, 0x00, 0x00, 0x00, 0x00, 0x00, 
  0x00, 0x00, 0x00, 0x00, 0x00, 0x00, };
