#define net_down_03_width 20
#define net_down_03_height 14
static char net_down_03_bits[] = {
  0x00, 0x00, 0x00, 0x00, 0x00, 0x00, 0x00, 0x38, 0x00, 0x00, 0x38, 0x00, 
  0x00, 0x38, 0x00, 0x00, 0x38, 0x00, 0x00, 0xFE, 0x00, 0x00, 0x7C, 0x00, 
  0x00, 0x38, 0x00, 0x00, 0x10, 0x00, 0x00, 0x00, 0x00, 0x00, 0x00, 0x00, 
  0x00, 0x00, 0x00, 0x00, 0x00, 0x00, };
