#define net_down_01_width 20
#define net_down_01_height 14
static char net_down_01_bits[] = {
  0x00, 0x00, 0x00, 0x00, 0x00, 0x00, 0x00, 0x1E, 0x00, 0x00, 0x3C, 0x00, 
  0x00, 0x3C, 0x00, 0x00, 0x3C, 0x00, 0x00, 0xFF, 0x00, 0x00, 0x7E, 0x00, 
  0x00, 0x3C, 0x00, 0x00, 0x18, 0x00, 0x00, 0x00, 0x00, 0x00, 0x00, 0x00, 
  0x00, 0x00, 0x00, 0x00, 0x00, 0x00, };
