#define pacman_width 20
#define pacman_height 14
static char pacman_bits[] = {
  0x00, 0x00, 0x00, 0x00, 0x00, 0x00, 0x00, 0x3C, 0x00, 0x00, 0x6E, 0x00, 
  0x00, 0xE7, 0x00, 0x00, 0xFF, 0x00, 0x00, 0x07, 0x00, 0x00, 0x1F, 0x00, 
  0x00, 0x7E, 0x00, 0x00, 0x3C, 0x00, 0x00, 0x00, 0x00, 0x00, 0x00, 0x00, 
  0x00, 0x00, 0x00, 0x00, 0x00, 0x00, };
