#define phones_width 20
#define phones_height 14
static char phones_bits[] = {
  0x00, 0x00, 0x00, 0x00, 0x00, 0x00, 0x00, 0x3C, 0x00, 0x00, 0x42, 0x00, 
  0x00, 0x81, 0x00, 0x00, 0x81, 0x00, 0x00, 0xA5, 0x00, 0x00, 0xE7, 0x00, 
  0x00, 0xE7, 0x00, 0x00, 0x66, 0x00, 0x00, 0x00, 0x00, 0x00, 0x00, 0x00, 
  0x00, 0x00, 0x00, 0x00, 0x00, 0x00, };
