#define scorpio_width 20
#define scorpio_height 14
static char scorpio_bits[] = {
  0x00, 0x00, 0x00, 0x00, 0x00, 0x00, 0x00, 0x42, 0x00, 0x00, 0x81, 0x00, 
  0x00, 0xDB, 0x00, 0x00, 0x3C, 0x00, 0x00, 0xDB, 0x00, 0x00, 0x5A, 0x00, 
  0x00, 0x99, 0x00, 0x00, 0x30, 0x00, 0x00, 0x00, 0x00, 0x00, 0x00, 0x00, 
  0x00, 0x00, 0x00, 0x00, 0x00, 0x00, };
