#define spkr_01_width 20
#define spkr_01_height 14
static char spkr_01_bits[] = {
  0x00, 0x00, 0x00, 0x00, 0x00, 0x00, 0x00, 0x08, 0x00, 0x00, 0x4C, 0x00, 
  0x00, 0x8F, 0x00, 0x00, 0xAF, 0x00, 0x00, 0xAF, 0x00, 0x00, 0x8F, 0x00, 
  0x00, 0x4C, 0x00, 0x00, 0x08, 0x00, 0x00, 0x00, 0x00, 0x00, 0x00, 0x00, 
  0x00, 0x00, 0x00, 0x00, 0x00, 0x00, };
