#define spkr_03_width 20
#define spkr_03_height 14
static char spkr_03_bits[] = {
  0x00, 0x00, 0x00, 0x00, 0x00, 0x00, 0x00, 0x4C, 0x00, 0x00, 0x93, 0x00, 
  0x00, 0x93, 0x00, 0x00, 0x97, 0x00, 0x00, 0x97, 0x00, 0x00, 0x93, 0x00, 
  0x00, 0x93, 0x00, 0x00, 0x4C, 0x00, 0x00, 0x00, 0x00, 0x00, 0x00, 0x00, 
  0x00, 0x00, 0x00, 0x00, 0x00, 0x00, };
