#define temp_width 20
#define temp_height 14
static char temp_bits[] = {
  0x00, 0x00, 0x00, 0x00, 0x00, 0x00, 0x00, 0xC8, 0x00, 0x00, 0xE0, 0x00, 
  0x00, 0x72, 0x00, 0x00, 0x28, 0x00, 0x00, 0x16, 0x00, 0x00, 0x09, 0x00, 
  0x00, 0x09, 0x00, 0x00, 0x06, 0x00, 0x00, 0x00, 0x00, 0x00, 0x00, 0x00, 
  0x00, 0x00, 0x00, 0x00, 0x00, 0x00, };
