#define test_width 20
#define test_height 14
static char test_bits[] = {
  0x00, 0x00, 0x00, 0x00, 0x00, 0x00, 0x00, 0x0E, 0x00, 0x00, 0x13, 0x00, 
  0x00, 0x21, 0x00, 0x00, 0x41, 0x00, 0x00, 0x82, 0x00, 0x00, 0x84, 0x00, 
  0x00, 0xC8, 0x00, 0x00, 0x70, 0x00, 0x00, 0x00, 0x00, 0x00, 0x00, 0x00, 
  0x00, 0x00, 0x00, 0x00, 0x00, 0x00, };
