#define usb_width 20
#define usb_height 14
static char usb_bits[] = {
  0x00, 0x00, 0x00, 0x00, 0x00, 0x00, 0x00, 0x70, 0x00, 0x00, 0x88, 0x00, 
  0x00, 0xC4, 0x00, 0x00, 0xE2, 0x00, 0x00, 0x7E, 0x00, 0x00, 0x32, 0x00, 
  0x00, 0x09, 0x00, 0x00, 0x07, 0x00, 0x00, 0x00, 0x00, 0x00, 0x00, 0x00, 
  0x00, 0x00, 0x00, 0x00, 0x00, 0x00, };
