#define usb_02_width 20
#define usb_02_height 14
static char usb_02_bits[] = {
  0x00, 0x00, 0x00, 0x00, 0x00, 0x00, 0x00, 0x10, 0x00, 0x00, 0x50, 0x00, 
  0x00, 0x54, 0x00, 0x00, 0x54, 0x00, 0x00, 0x34, 0x00, 0x00, 0x18, 0x00, 
  0x00, 0x10, 0x00, 0x00, 0x10, 0x00, 0x00, 0x00, 0x00, 0x00, 0x00, 0x00, 
  0x00, 0x00, 0x00, 0x00, 0x00, 0x00, };
