#define vline_width 10
#define vline_height 14
static unsigned char vline_bits[] = {
   0x10, 0x00, 0x10, 0x00, 0x10, 0x00, 0x10, 0x00, 0x10, 0x00, 0x10, 0x00,
   0x10, 0x00, 0x10, 0x00, 0x10, 0x00, 0x10, 0x00, 0x10, 0x00, 0x10, 0x00,
   0x10, 0x00, 0x10, 0x00 };
