#define wifi_01_width 20
#define wifi_01_height 14
static char wifi_01_bits[] = {
  0x00, 0x00, 0x00, 0x00, 0x00, 0x00, 0x00, 0x80, 0x00, 0x00, 0xA0, 0x00, 
  0x00, 0xA8, 0x00, 0x00, 0xAB, 0x00, 0x00, 0xAB, 0x00, 0x00, 0xA8, 0x00, 
  0x00, 0xA0, 0x00, 0x00, 0x80, 0x00, 0x00, 0x00, 0x00, 0x00, 0x00, 0x00, 
  0x00, 0x00, 0x00, 0x00, 0x00, 0x00, };
