#define wifi_02_width 20
#define wifi_02_height 14
static char wifi_02_bits[] = {
  0x00, 0x00, 0x00, 0x00, 0x00, 0x00, 0x00, 0x40, 0x00, 0x00, 0x90, 0x00, 
  0x00, 0xA4, 0x00, 0x00, 0xA9, 0x00, 0x00, 0xA9, 0x00, 0x00, 0xA4, 0x00, 
  0x00, 0x90, 0x00, 0x00, 0x40, 0x00, 0x00, 0x00, 0x00, 0x00, 0x00, 0x00, 
  0x00, 0x00, 0x00, 0x00, 0x00, 0x00, };
